<svg xmlns="http://www.w3.org/2000/svg" viewBox="0 0 200 200" width="512" height="512" role="img" aria-label="Space weather: broken skywave and severed satellite link"><title>Space weather: broken skywave and severed satellite link</title><defs><linearGradient id="au2" x1="0" y1="0" x2="0" y2="1"><stop offset="0" stop-color="#C86FE0" stop-opacity="0"/><stop offset="0.32" stop-color="#3FC7C0" stop-opacity="0.65"/><stop offset="0.78" stop-color="#8AF0A0" stop-opacity="1"/><stop offset="1" stop-color="#B7F7A8" stop-opacity="0.35"/></linearGradient></defs><rect width="200" height="200" rx="26" fill="#0B1026"/><g stroke="url(#au2)" stroke-width="7" stroke-linecap="round"><path d="M20 108 L20 172"/><path d="M34 92 L34 172"/><path d="M48 78 L48 172"/><path d="M62 70 L62 172"/><path d="M76 64 L76 172"/><path d="M90 62 L90 172"/><path d="M104 62 L104 172"/><path d="M118 66 L118 172"/><path d="M132 74 L132 172"/><path d="M146 86 L146 172"/><path d="M160 100 L160 172"/><path d="M174 116 L174 172"/></g><path d="M12 56 Q100 30 188 56" fill="none" stroke="#4CC9F0" stroke-width="3.5" stroke-dasharray="9 7"/><g fill="#4CC9F0"><rect x="6" y="26" width="18" height="10" rx="2"/><rect x="50" y="26" width="18" height="10" rx="2"/></g><rect x="26" y="22" width="22" height="18" rx="3" fill="#D9E2EC"/><rect x="35" y="40" width="4" height="6" fill="#D9E2EC"/><path d="M39 50 L94 110" fill="none" stroke="#D9E2EC" stroke-width="3.5" stroke-dasharray="6 7"/><path d="M108 116 L149 56" fill="none" stroke="#FFB703" stroke-width="5" stroke-linecap="round"/><path d="M158 56 L186 96" fill="none" stroke="#FFB703" stroke-width="5" stroke-linecap="round" stroke-dasharray="7 8" opacity="0.35"/><g stroke="#E4572E" stroke-width="5.5" stroke-linecap="round"><path d="M144 39 L162 57"/><path d="M162 39 L144 57"/><path d="M57 71 L75 89"/><path d="M75 71 L57 89"/></g><path d="M0 200 A200 200 0 0 1 200 200" fill="#1B4965"/><g fill="#D9E2EC"><rect x="98" y="112" width="5" height="56"/><path d="M96 120 L96 166 L70 166 Z"/><path d="M105 126 L105 166 L132 166 Z"/><path d="M72 168 L128 168 L120 182 L80 182 Z"/></g><g stroke="#4CC9F0" stroke-width="3" stroke-linecap="round" fill="none" opacity="0.8"><path d="M22 186 Q34 180 46 186"/><path d="M154 186 Q166 180 178 186"/></g></svg>
